M48
; DRILL file {KiCad 8.0.0-8.0.0-1~ubuntu22.04.1} date 2024-03-20T22:29:36-0400
; FORMAT={-:-/ absolute / inch / decimal}
; #@! TF.CreationDate,2024-03-20T22:29:36-04:00
; #@! TF.GenerationSoftware,Kicad,Pcbnew,8.0.0-8.0.0-1~ubuntu22.04.1
; #@! TF.FileFunction,Plated,1,2,PTH
FMAT,2
INCH
; #@! TA.AperFunction,Plated,PTH,ComponentDrill
T1C0.0350
; #@! TA.AperFunction,Plated,PTH,ComponentDrill
T2C0.0354
; #@! TA.AperFunction,Plated,PTH,ComponentDrill
T3C0.0394
%
G90
G05
T2
X4.8799Y-4.2637
X4.9799Y-4.2637
T3
X4.7904Y-4.0059
X4.8902Y-4.4783
X4.8904Y-4.0059
X4.9902Y-4.4783
X4.9904Y-4.0059
X5.0904Y-4.0059
T1
G00X4.799Y-3.3701
M15
G01X4.884Y-3.3701
M16
G05
G00X4.799Y-3.5551
M15
G01X4.884Y-3.5551
M16
G05
G00X4.799Y-3.7401
M15
G01X4.884Y-3.7401
M16
G05
G00X4.9762Y-3.3701
M15
G01X5.0612Y-3.3701
M16
G05
G00X4.9762Y-3.5551
M15
G01X5.0612Y-3.5551
M16
G05
G00X4.9762Y-3.7401
M15
G01X5.0612Y-3.7401
M16
G05
M30
