M48
; DRILL file {KiCad 8.0.0-8.0.0-1~ubuntu22.04.1} date 2024-03-06T19:01:51-0500
; FORMAT={-:-/ absolute / inch / decimal}
; #@! TF.CreationDate,2024-03-06T19:01:51-05:00
; #@! TF.GenerationSoftware,Kicad,Pcbnew,8.0.0-8.0.0-1~ubuntu22.04.1
; #@! TF.FileFunction,Plated,1,2,PTH
FMAT,2
INCH
; #@! TA.AperFunction,Plated,PTH,ComponentDrill
T1C0.0300
; #@! TA.AperFunction,Plated,PTH,ComponentDrill
T2C0.0354
; #@! TA.AperFunction,Plated,PTH,ComponentDrill
T3C0.0394
%
G90
G05
T2
X5.7425Y-4.1884
X5.8425Y-4.1884
T3
X5.6378Y-3.874
X5.7378Y-3.874
X5.7425Y-4.4724
X5.8378Y-3.874
X5.8425Y-4.4724
X5.9378Y-3.874
T1
G00X5.6737Y-3.4325
M15
G01X5.7263Y-3.4325
M16
G05
G00X5.6737Y-3.525
M15
G01X5.7263Y-3.525
M16
G05
G00X5.6737Y-3.6175
M15
G01X5.7263Y-3.6175
M16
G05
G00X5.8637Y-3.4325
M15
G01X5.9163Y-3.4325
M16
G05
G00X5.8637Y-3.525
M15
G01X5.9163Y-3.525
M16
G05
G00X5.8637Y-3.6175
M15
G01X5.9163Y-3.6175
M16
G05
M30
