%TF.GenerationSoftware,KiCad,Pcbnew,8.0.0-8.0.0-1~ubuntu22.04.1*%
%TF.CreationDate,2024-03-20T22:29:58-04:00*%
%TF.ProjectId,BantamOnOffSwitchGroup,42616e74-616d-44f6-9e4f-666653776974,1.2*%
%TF.SameCoordinates,Original*%
%TF.FileFunction,Legend,Top*%
%TF.FilePolarity,Positive*%
%FSLAX46Y46*%
G04 Gerber Fmt 4.6, Leading zero omitted, Abs format (unit mm)*
G04 Created by KiCad (PCBNEW 8.0.0-8.0.0-1~ubuntu22.04.1) date 2024-03-20 22:29:58*
%MOMM*%
%LPD*%
G01*
G04 APERTURE LIST*
%ADD10C,0.150000*%
%ADD11C,0.120000*%
G04 APERTURE END LIST*
D10*
X119632200Y-91833332D02*
X119679819Y-91690475D01*
X119679819Y-91690475D02*
X119679819Y-91452380D01*
X119679819Y-91452380D02*
X119632200Y-91357142D01*
X119632200Y-91357142D02*
X119584580Y-91309523D01*
X119584580Y-91309523D02*
X119489342Y-91261904D01*
X119489342Y-91261904D02*
X119394104Y-91261904D01*
X119394104Y-91261904D02*
X119298866Y-91309523D01*
X119298866Y-91309523D02*
X119251247Y-91357142D01*
X119251247Y-91357142D02*
X119203628Y-91452380D01*
X119203628Y-91452380D02*
X119156009Y-91642856D01*
X119156009Y-91642856D02*
X119108390Y-91738094D01*
X119108390Y-91738094D02*
X119060771Y-91785713D01*
X119060771Y-91785713D02*
X118965533Y-91833332D01*
X118965533Y-91833332D02*
X118870295Y-91833332D01*
X118870295Y-91833332D02*
X118775057Y-91785713D01*
X118775057Y-91785713D02*
X118727438Y-91738094D01*
X118727438Y-91738094D02*
X118679819Y-91642856D01*
X118679819Y-91642856D02*
X118679819Y-91404761D01*
X118679819Y-91404761D02*
X118727438Y-91261904D01*
X118679819Y-90928570D02*
X119679819Y-90690475D01*
X119679819Y-90690475D02*
X118965533Y-90499999D01*
X118965533Y-90499999D02*
X119679819Y-90309523D01*
X119679819Y-90309523D02*
X118679819Y-90071428D01*
X119679819Y-89166666D02*
X119679819Y-89738094D01*
X119679819Y-89452380D02*
X118679819Y-89452380D01*
X118679819Y-89452380D02*
X118822676Y-89547618D01*
X118822676Y-89547618D02*
X118917914Y-89642856D01*
X118917914Y-89642856D02*
X118965533Y-89738094D01*
X119891666Y-104204819D02*
X119891666Y-104919104D01*
X119891666Y-104919104D02*
X119844047Y-105061961D01*
X119844047Y-105061961D02*
X119748809Y-105157200D01*
X119748809Y-105157200D02*
X119605952Y-105204819D01*
X119605952Y-105204819D02*
X119510714Y-105204819D01*
X120320238Y-104300057D02*
X120367857Y-104252438D01*
X120367857Y-104252438D02*
X120463095Y-104204819D01*
X120463095Y-104204819D02*
X120701190Y-104204819D01*
X120701190Y-104204819D02*
X120796428Y-104252438D01*
X120796428Y-104252438D02*
X120844047Y-104300057D01*
X120844047Y-104300057D02*
X120891666Y-104395295D01*
X120891666Y-104395295D02*
X120891666Y-104490533D01*
X120891666Y-104490533D02*
X120844047Y-104633390D01*
X120844047Y-104633390D02*
X120272619Y-105204819D01*
X120272619Y-105204819D02*
X120891666Y-105204819D01*
X129141666Y-112469819D02*
X129141666Y-113184104D01*
X129141666Y-113184104D02*
X129094047Y-113326961D01*
X129094047Y-113326961D02*
X128998809Y-113422200D01*
X128998809Y-113422200D02*
X128855952Y-113469819D01*
X128855952Y-113469819D02*
X128760714Y-113469819D01*
X130141666Y-113469819D02*
X129570238Y-113469819D01*
X129855952Y-113469819D02*
X129855952Y-112469819D01*
X129855952Y-112469819D02*
X129760714Y-112612676D01*
X129760714Y-112612676D02*
X129665476Y-112707914D01*
X129665476Y-112707914D02*
X129570238Y-112755533D01*
X127986905Y-107003819D02*
X127986905Y-106003819D01*
X127986905Y-106003819D02*
X128225000Y-106003819D01*
X128225000Y-106003819D02*
X128367857Y-106051438D01*
X128367857Y-106051438D02*
X128463095Y-106146676D01*
X128463095Y-106146676D02*
X128510714Y-106241914D01*
X128510714Y-106241914D02*
X128558333Y-106432390D01*
X128558333Y-106432390D02*
X128558333Y-106575247D01*
X128558333Y-106575247D02*
X128510714Y-106765723D01*
X128510714Y-106765723D02*
X128463095Y-106860961D01*
X128463095Y-106860961D02*
X128367857Y-106956200D01*
X128367857Y-106956200D02*
X128225000Y-107003819D01*
X128225000Y-107003819D02*
X127986905Y-107003819D01*
X129510714Y-107003819D02*
X128939286Y-107003819D01*
X129225000Y-107003819D02*
X129225000Y-106003819D01*
X129225000Y-106003819D02*
X129129762Y-106146676D01*
X129129762Y-106146676D02*
X129034524Y-106241914D01*
X129034524Y-106241914D02*
X128939286Y-106289533D01*
D11*
%TO.C,SW1*%
X120145000Y-83695000D02*
X130559000Y-83695000D01*
X120145000Y-96903000D02*
X120145000Y-83695000D01*
X120399000Y-96903000D02*
X120145000Y-96903000D01*
X130559000Y-83695000D02*
X130559000Y-96903000D01*
X130559000Y-96903000D02*
X120399000Y-96903000D01*
%TO.C,J2*%
X120345000Y-103080000D02*
X120345000Y-101750000D01*
X121675000Y-103080000D02*
X120345000Y-103080000D01*
X122945000Y-103080000D02*
X130625000Y-103080000D01*
X122945000Y-103080000D02*
X122945000Y-100420000D01*
X130625000Y-103080000D02*
X130625000Y-100420000D01*
X122945000Y-100420000D02*
X130625000Y-100420000D01*
%TO.C,J1*%
X128080000Y-112420000D02*
X128080000Y-113750000D01*
X126750000Y-112420000D02*
X128080000Y-112420000D01*
X125480000Y-112420000D02*
X122880000Y-112420000D01*
X125480000Y-112420000D02*
X125480000Y-115080000D01*
X122880000Y-112420000D02*
X122880000Y-115080000D01*
X125480000Y-115080000D02*
X122880000Y-115080000D01*
%TO.C,D1*%
X123660000Y-107063000D02*
X123660000Y-107219000D01*
X123660000Y-109379000D02*
X123660000Y-109535000D01*
X123660001Y-107063485D02*
G75*
G02*
X126892334Y-107220392I1559999J-1235515D01*
G01*
X124179040Y-107219001D02*
G75*
G02*
X126261129Y-107219164I1040960J-1079999D01*
G01*
X126261129Y-109378836D02*
G75*
G02*
X124179040Y-109378999I-1041129J1079836D01*
G01*
X126892334Y-109377608D02*
G75*
G02*
X123660001Y-109534515I-1672334J1078608D01*
G01*
%TD*%
M02*
